/vscmnt/brussel_pixiu_data/_data_brussel/112/vsc11236/PredSimResults/SUBJ04mtu3D/worker8.mot
version=1
nRows=11
nColumns=50
inDegrees=yes
endheader
                time	         pelvis_tilt	         pelvis_list	     pelvis_rotation	           pelvis_tx	           pelvis_ty	           pelvis_tz	       hip_flexion_r	     hip_adduction_r	      hip_rotation_r	        knee_angle_r	       ankle_angle_r	         mtp_angle_r	       hip_flexion_l	     hip_adduction_l	      hip_rotation_l	        knee_angle_l	       ankle_angle_l	         mtp_angle_l	    lumbar_extension	      lumbar_bending	     lumbar_rotation	 ercspn_r/activation	 intobl_r/activation	 extobl_r/activation	    abd_r/activation	    add_r/activation	hamstrings_r/activation	bifemsh_r/activation	glut_max_r/activation	iliopsoas_r/activation	rect_fem_r/activation	  vasti_r/activation	gastroc_r/activation	 soleus_r/activation	tib_ant_r/activation	 ercspn_l/activation	 intobl_l/activation	 extobl_l/activation	    abd_l/activation	    add_l/activation	hamstrings_l/activation	bifemsh_l/activation	glut_max_l/activation	iliopsoas_l/activation	rect_fem_l/activation	  vasti_l/activation	gastroc_l/activation	 soleus_l/activation	tib_ant_l/activation	
          1.42871253	         -3.55799473	         -0.25681965	         10.04800213	          1.34298978	          0.87715715	         -0.00636839	         28.96494832	         -2.41601820	         -6.63549163	         -6.46960971	          3.11247127	          0.24381228	        -12.80120386	         -1.85094036	         -3.93191207	         -9.33390452	         10.24027220	         27.45230601	        -13.39039601	         -3.80059828	         -7.37398994	          0.04528684	          0.23052379	          0.04391492	          0.00999999	          0.24044713	          0.07231289	          0.01000000	          0.01542175	          0.13109454	          0.02572794	          0.04578816	          0.00999999	          0.00999999	          0.29869318	          0.00999999	          0.00999999	          0.00999999	          0.05213972	          0.00999999	          0.01532936	          0.16743189	          0.01532937	          0.00999999	          0.00999999	          0.00999999	          0.37798925	          0.20271655	          0.00999999	
          1.44299966	         -3.61451615	         -0.30016982	          9.68876617	          1.36070781	          0.87495726	         -0.00568796	         28.59933135	         -2.14767472	         -6.97956730	         -7.59864745	          2.74121912	          0.22425466	        -13.47911176	         -2.02301992	         -4.81243041	        -10.18962659	          9.61493483	         29.05938980	        -12.84979017	         -3.10370779	         -7.27888467	          0.03657714	          0.21053980	          0.03546907	          0.03368615	          0.19420361	          0.06477910	          0.01000005	          0.05114339	          0.10588204	          0.02077987	          0.03698205	          0.01238118	          0.01238118	          0.32801208	          0.00999999	          0.00999999	          0.00999999	          0.04211205	          0.00999999	          0.01238117	          0.13523088	          0.01238118	          0.03058370	          0.00999999	          0.00999999	          0.34939720	          0.19005353	          0.00999999	
          1.45728678	         -3.65405552	         -0.40686010	          9.25909050	          1.37868377	          0.87314152	         -0.00493373	         28.13585607	         -1.82326428	         -7.35281527	         -8.55513314	          2.09453922	          0.21442652	        -13.96406437	         -2.26714524	         -5.74177735	        -11.44058016	          8.85316383	         30.70671327	        -12.29698304	         -2.30427917	         -7.14344461	          0.02954251	          0.17004814	          0.02864755	          0.06581438	          0.15685378	          0.05973868	          0.01003737	          0.05976690	          0.08551848	          0.01678342	          0.07867998	          0.00999999	          0.00999999	          0.37890817	          0.02939864	          0.00999999	          0.00999999	          0.03401293	          0.00999999	          0.00999999	          0.10922287	          0.00999999	          0.02571210	          0.00999999	          0.00999999	          0.31147324	          0.17101061	          0.00999999	
          1.47157391	         -3.67915488	         -0.56027117	          8.76303012	          1.39667473	          0.87197817	         -0.00407540	         27.59270423	         -1.44458682	         -7.76258655	         -9.38840647	          1.53329361	          0.18640688	        -14.16703770	         -2.57946045	         -6.72194909	        -13.20321579	          7.89867681	         32.34720617	        -11.76525061	         -1.43024490	         -6.96931990	          0.02789843	          0.13734397	          0.02313797	          0.10500843	          0.12668718	          0.05764710	          0.01000000	          0.05648191	          0.06907131	          0.01355558	          0.10875222	          0.00999999	          0.00999999	          0.40719492	          0.05284945	          0.00999999	          0.00999999	          0.02747146	          0.00999999	          0.00999999	          0.08821679	          0.00999999	          0.02076707	          0.00999999	          0.00999999	          0.25156976	          0.13849331	          0.00999999	
          1.48586103	         -3.69243178	         -0.76307265	          8.21891318	          1.41446920	          0.87165439	         -0.00311504	         26.97327786	         -0.99744254	         -8.12056211	        -10.11812953	          1.20175166	          0.16154448	        -14.02379714	         -2.98293276	         -7.74487162	        -15.55106099	          6.74878886	         33.81832150	        -11.27596930	         -0.48641183	         -6.76649114	          0.02253292	          0.11092956	          0.01868800	          0.13908715	          0.10232232	          0.05421827	          0.01000000	          0.07254925	          0.05578731	          0.01094853	          0.11712371	          0.00999999	          0.00999999	          0.40347260	          0.09702043	          0.00999999	          0.00999999	          0.02218807	          0.01000003	          0.07025106	          0.07125067	          0.00999999	          0.01677308	          0.00999999	          0.01238118	          0.20318710	          0.11185786	          0.00999999	
          1.50014816	         -3.69638258	         -1.01369463	          7.64739913	          1.43187733	          0.87227208	         -0.00206588	         26.30385772	         -0.47449709	         -8.32081346	        -10.76323367	          1.08846588	          0.14443443	        -13.50819598	         -3.49664188	         -8.80040494	        -18.48417700	          5.40266069	         34.90195717	        -10.84550981	          0.51692960	         -6.54928091	          0.02236112	          0.08959525	          0.01509387	          0.15445408	          0.09687784	          0.05635060	          0.00999999	          0.06448060	          0.04505812	          0.00999999	          0.12722563	          0.00999999	          0.00999999	          0.38392232	          0.11160004	          0.02653065	          0.00999999	          0.01792079	          0.03915684	          0.06637932	          0.05754753	          0.00999999	          0.01354723	          0.00999999	          0.00999999	          0.16410954	          0.09034501	          0.00999999	
          1.51443528	         -3.69264309	         -1.27387093	          7.06047388	          1.44882967	          0.87375389	         -0.00094526	         25.56176067	          0.08642795	         -8.34855580	        -11.26779117	          1.11185274	          0.13560598	        -12.63494996	         -4.10011091	         -9.90594047	        -21.96127340	          3.92957979	         35.27384297	        -10.48225093	          1.52755121	         -6.31955346	          0.02452006	          0.07236402	          0.01219097	          0.16009294	          0.09327644	          0.05947722	          0.01000000	          0.05207950	          0.03639241	          0.00999999	          0.12490172	          0.00999999	          0.00999999	          0.35604428	          0.11333329	          0.04127321	          0.00999999	          0.01447421	          0.03162609	          0.05971642	          0.04647981	          0.00999999	          0.01094179	          0.00999999	          0.00999999	          0.13254750	          0.07296959	          0.00999999	
          1.52872241	         -3.68147388	         -1.50057808	          6.46459226	          1.46534403	          0.87591986	          0.00022538	         24.72569943	          0.63381662	         -8.24740938	        -11.60179404	          1.24149720	          0.13780069	        -11.44415656	         -4.77332546	        -11.07423213	        -25.92468961	          2.40478459	         34.67296305	        -10.18539898	          2.49079187	         -6.07244432	          0.01980429	          0.05844675	          0.00999999	          0.16048809	          0.10282215	          0.06408996	          0.00999999	          0.04498491	          0.02939331	          0.00999999	          0.11877519	          0.00999999	          0.00999999	          0.32174574	          0.09153669	          0.04883780	          0.00999999	          0.01169049	          0.09241592	          0.05423071	          0.03754067	          0.00999999	          0.03869872	          0.00999999	          0.00999999	          0.10705556	          0.05893585	          0.00999999	
          1.54300953	         -3.66325489	         -1.66140657	          5.86176787	          1.48142489	          0.87858413	          0.00140869	         23.79297131	          1.12463769	         -8.05222012	        -11.75941117	          1.43861850	          0.16469475	         -9.97198240	         -5.50086771	        -12.29404522	        -30.26249932	          0.67899542	         33.24290359	         -9.95482250	          3.37089031	         -5.80063208	          0.01599547	          0.04720609	          0.00999999	          0.15802234	          0.08381749	          0.07043952	          0.00999999	          0.04723346	          0.02374030	          0.00999999	          0.10491793	          0.00999999	          0.00999999	          0.28921692	          0.07393208	          0.05062942	          0.00999999	          0.00999999	          0.16329475	          0.06662181	          0.04826458	          0.00999999	          0.05814363	          0.00999999	          0.00999999	          0.08646631	          0.04760113	          0.00999999	
          1.55729666	         -3.63754647	         -1.73054391	          5.25205378	          1.49707409	          0.88154966	          0.00256723	         22.78452882	          1.51983778	         -7.79125673	        -11.77314515	          1.65029169	          0.23192481	         -8.26910122	         -6.26821499	        -13.54197508	        -34.85672372	         -1.19243476	         30.89410203	         -9.78918500	          4.14096352	         -5.49831443	          0.01291917	          0.03812728	          0.00999999	          0.16118868	          0.06769745	          0.07260695	          0.00999999	          0.05014931	          0.01917449	          0.00999999	          0.09129667	          0.00999999	          0.00999999	          0.26198453	          0.07283866	          0.06600378	          0.00999999	          0.00999999	          0.17657962	          0.05380890	          0.05721147	          0.00999999	          0.07502138	          0.00999999	          0.00999999	          0.06983685	          0.03844634	          0.04477122	
          1.57158379	         -3.60257747	         -1.70040160	          4.63771836	          1.51229588	          0.88460215	          0.00368518	         21.72574937	          1.80230216	         -7.48115286	        -11.68619788	          1.86225782	          0.34409254	         -6.41420939	         -7.05472152	        -14.73802153	        -39.59822176	         -2.76869210	         27.24480745	         -9.68480550	          4.78693946	         -5.15834002	          0.01043452	          0.03079452	          0.00999999	          0.15445737	          0.05467767	          0.07241543	          0.00999999	          0.05897151	          0.01548680	          0.00999999	          0.08686326	          0.00999999	          0.00999999	          0.24091713	          0.11192004	          0.09766183	          0.04040256	          0.00999999	          0.14261929	          0.04346021	          0.05079113	          0.00999999	          0.07967351	          0.00999999	          0.00999999	          0.05640561	          0.03105222	          0.15269341	
